# xmcd CD database file
#
# Track frame offsets:
#	150
#	26876
#	63122
#	96956
#	126193
#	158335
#	184894
#	213409
#	250562
#
# Disc length: 3725 seconds
#
# Revision: 0
# Processed by: cddbd v1.5.2PL0 Copyright (c) Steve Scherf et al.
# Submitted via: CDex 1.70beta2
#
DISCID=710e8b09
DTITLE=Stefano Bollani - Stone In The Water
DYEAR=1900
DGENRE=Jazz
TTITLE0=Dom De Iludir
TTITLE1=Orvieto
TTITLE2=Edith
TTITLE3=Brigas Nunca Mais
TTITLE4=Il Cervello Del Pavone
TTITLE5=Un Sasso Nello Stagno
TTITLE6=Improvisation 13 En La Mineur
TTITLE7=Asuda
TTITLE8=Joker In The Village
EXTD=
EXTT0=
EXTT1=
EXTT2=
EXTT3=
EXTT4=
EXTT5=
EXTT6=
EXTT7=
EXTT8=
PLAYORDER=
